<svg id="visual" viewBox="0 0 100 100" width="100" height="100" xmlns="http://www.w3.org/2000/svg" xmlns:xlink="http://www.w3.org/1999/xlink" version="1.1"><g transform="translate(50.27835745283681 55.82618901682398)"><path d="M26 -37C34.7 -29.4 43.5 -23.2 47.1 -14.7C50.7 -6.2 49.1 4.6 44.2 12.7C39.4 20.8 31.2 26.2 23.2 30.8C15.3 35.4 7.7 39.2 -1.1 40.7C-9.8 42.2 -19.6 41.3 -27.5 36.7C-35.4 32.1 -41.5 23.8 -45.5 14.2C-49.5 4.5 -51.4 -6.4 -47.4 -14.4C-43.3 -22.3 -33.4 -27.3 -24.6 -34.9C-15.7 -42.4 -7.8 -52.5 0.4 -53C8.6 -53.5 17.2 -44.6 26 -37" fill="#11153e"></path></g></svg>