<svg id="visual" viewBox="0 0 100 100" width="100" height="100" xmlns="http://www.w3.org/2000/svg" xmlns:xlink="http://www.w3.org/1999/xlink" version="1.1"><g transform="translate(56.882282448823474 48.12401638503546)"><path d="M23.6 -40.9C30.3 -37.1 35.1 -30.1 38.3 -22.7C41.6 -15.3 43.3 -7.7 44.3 0.6C45.3 8.8 45.6 17.7 41.4 23.3C37.1 28.9 28.3 31.4 20.7 36.5C13 41.6 6.5 49.3 -0.5 50.1C-7.5 51 -15 45 -23.1 40.1C-31.2 35.3 -39.8 31.7 -46.5 25.2C-53.2 18.7 -57.8 9.3 -58.6 -0.4C-59.3 -10.2 -56.1 -20.3 -50.2 -28.3C-44.4 -36.2 -35.9 -41.9 -27.1 -44.5C-18.3 -47.1 -9.2 -46.5 -0.3 -46C8.5 -45.4 17 -44.8 23.6 -40.9" fill="#11153e"></path></g></svg>