<svg id="visual" viewBox="0 0 300 50" width="300" height="50" xmlns="http://www.w3.org/2000/svg" xmlns:xlink="http://www.w3.org/1999/xlink" version="1.1"><rect x="0" y="0" width="300" height="50" fill="#0d102f"></rect><path d="M0 33L8.3 32.2C16.7 31.3 33.3 29.7 50 28.5C66.7 27.3 83.3 26.7 100 27.7C116.7 28.7 133.3 31.3 150 33.3C166.7 35.3 183.3 36.7 200 36.7C216.7 36.7 233.3 35.3 250 33.5C266.7 31.7 283.3 29.3 291.7 28.2L300 27L300 51L291.7 51C283.3 51 266.7 51 250 51C233.3 51 216.7 51 200 51C183.3 51 166.7 51 150 51C133.3 51 116.7 51 100 51C83.3 51 66.7 51 50 51C33.3 51 16.7 51 8.3 51L0 51Z" fill="#2d0572" stroke-linecap="round" stroke-linejoin="miter"></path></svg>