<svg id="visual" viewBox="0 0 300 50" width="300" height="50" xmlns="http://www.w3.org/2000/svg" xmlns:xlink="http://www.w3.org/1999/xlink" version="1.1"><rect x="0" y="0" width="300" height="50" fill="#2d0572"></rect><path d="M0 34L8.3 34.7C16.7 35.3 33.3 36.7 50 37.3C66.7 38 83.3 38 100 36.2C116.7 34.3 133.3 30.7 150 30.5C166.7 30.3 183.3 33.7 200 33.5C216.7 33.3 233.3 29.7 250 28.3C266.7 27 283.3 28 291.7 28.5L300 29L300 51L291.7 51C283.3 51 266.7 51 250 51C233.3 51 216.7 51 200 51C183.3 51 166.7 51 150 51C133.3 51 116.7 51 100 51C83.3 51 66.7 51 50 51C33.3 51 16.7 51 8.3 51L0 51Z" fill="#160159" stroke-linecap="round" stroke-linejoin="miter"></path></svg>