<svg id="visual" viewBox="0 0 300 80" width="300" height="80" xmlns="http://www.w3.org/2000/svg" xmlns:xlink="http://www.w3.org/1999/xlink" version="1.1"><rect x="0" y="0" width="300" height="80" fill="#160159"></rect><path d="M0 23L23 23L46 17L69 24L92 25L115 28L138 16L162 24L185 21L208 21L231 26L254 33L277 20L300 34L300 81L277 81L254 81L231 81L208 81L185 81L162 81L138 81L115 81L92 81L69 81L46 81L23 81L0 81Z" fill="#5826e3"></path><path d="M0 41L23 36L46 38L69 40L92 38L115 46L138 44L162 41L185 34L208 35L231 51L254 37L277 47L300 46L300 81L277 81L254 81L231 81L208 81L185 81L162 81L138 81L115 81L92 81L69 81L46 81L23 81L0 81Z" fill="#291490"></path><path d="M0 52L23 63L46 55L69 64L92 54L115 64L138 62L162 66L185 56L208 64L231 63L254 57L277 54L300 65L300 81L277 81L254 81L231 81L208 81L185 81L162 81L138 81L115 81L92 81L69 81L46 81L23 81L0 81Z" fill="#070044"></path></svg>